<?xml version="1.0" encoding="iso-8859-1"?>
<!-- Uploaded to: SVG Repo, www.svgrepo.com, Generator: SVG Repo Mixer Tools -->
<svg fill="#000000" version="1.1" id="Layer_1" xmlns="http://www.w3.org/2000/svg" xmlns:xlink="http://www.w3.org/1999/xlink" 
	 viewBox="0 0 512.001 512.001" xml:space="preserve">
<g>
	<g>
		<g>
			<polygon points="255.763,219.293 239.978,219.293 239.978,284.101 272.261,284.101 272.261,268.316 255.763,268.316 			"/>
			<rect x="190.958" y="187.011" width="32.524" height="15.785"/>
			
				<rect x="195.268" y="117.661" transform="matrix(0.7071 0.7071 -0.7071 0.7071 157.0766 -103.2408)" width="15.785" height="40.654"/>
			<path d="M377.724,432.478v-66.832c0-13.38-8.183-24.885-19.808-29.774c2.323-8.745,3.546-17.853,3.546-27.141v-5.457
				c13.069,3.403,26.773,5.219,40.892,5.219h7.893V162.377C410.246,72.842,337.404,0,247.87,0h-7.893v63.871
				c-9.497-9.323-22.499-15.086-36.827-15.086c-29.01,0-52.612,23.602-52.612,52.612v44.958H150.3
				c-17.802,0-32.285,14.483-32.285,32.285s14.482,32.285,32.285,32.285h0.239v97.808c0,9.288,1.224,18.396,3.546,27.141
				c-11.624,4.889-19.808,16.393-19.808,29.774v66.832C104.591,447.603,85.493,478.625,85.493,512h15.785
				c0-25.108,12.436-47.827,32.999-61.312v20.658h15.785v-77.965c4.832,2.885,10.475,4.549,16.5,4.549h178.877
				c6.026,0,11.667-1.664,16.5-4.548v77.964h15.785v-20.658c20.564,13.485,32.999,36.204,32.999,61.312h15.785
				C426.508,478.624,407.409,447.603,377.724,432.478z M150.538,195.138h-0.239c-9.099,0-16.5-7.401-16.5-16.5s7.401-16.5,16.5-16.5
				h0.239V195.138z M394.462,162.377v130.121c-77.173-4.117-138.698-68.201-138.698-146.383V15.995
				C332.937,20.112,394.462,84.196,394.462,162.377z M166.562,382.146v0.001c-9.099,0-16.5-7.402-16.5-16.501
				c0-6.491,3.776-12.101,9.239-14.794c5.03,11.554,12.111,22.162,20.975,31.293H166.562z M307.502,382.147H204.498
				c-23.946-16.821-38.175-44.088-38.175-73.415V101.397c0-20.306,16.521-36.827,36.827-36.827
				c20.306,0,36.827,16.521,36.827,36.827v44.719c0,69.608,44.031,129.118,105.699,152.164v10.452
				C345.677,338.059,331.447,365.325,307.502,382.147z M345.439,382.147h-13.714c8.863-9.132,15.945-19.742,20.974-31.293
				c5.463,2.693,9.238,8.303,9.238,14.794C361.939,374.743,354.536,382.147,345.439,382.147z"/>
			<path d="M142.17,252.054h-32.761V121.723c0-58.414,47.523-105.938,105.938-105.938h16.262V0h-16.262
				C148.227,0,93.623,54.605,93.623,121.723v146.116h48.547V252.054z"/>
			<rect x="158.672" y="479.477" width="15.785" height="32.524"/>
			<rect x="337.548" y="479.477" width="15.785" height="32.524"/>
			<rect x="182.823" y="414.674" width="146.349" height="15.785"/>
			<rect x="247.868" y="349.619" width="16.262" height="15.785"/>
			<path d="M349.579,261.263l7.908-13.661c-23.488-13.595-43.082-33.2-56.663-56.696l-13.666,7.899
				C302.118,224.688,323.704,246.285,349.579,261.263z"/>
		</g>
	</g>
</g>
</svg>