<svg id="Layer_1" data-name="Layer 1" xmlns="http://www.w3.org/2000/svg" viewBox="0 0 94 94"><path d="M47,80.17a.74.74,0,0,1-.54-.23c-1.05-1.09-25.67-26.8-25.67-48.11a26.21,26.21,0,1,1,52.42,0c0,18.71-24.6,46.89-25.65,48.08a.75.75,0,0,1-.54.26Zm0-73A24.74,24.74,0,0,0,22.29,31.83c0,19,21,42.43,24.69,46.47C50.64,74,71.71,48.48,71.71,31.83A24.73,24.73,0,0,0,47,7.12Z"/><path d="M47,41.73A10.08,10.08,0,1,1,57.08,31.66,10.09,10.09,0,0,1,47,41.73Zm0-18.65a8.58,8.58,0,1,0,8.58,8.58A8.58,8.58,0,0,0,47,23.08Z"/><path d="M47,48.73A17.08,17.08,0,1,1,64.07,31.66,17.09,17.09,0,0,1,47,48.73Zm0-32.65A15.58,15.58,0,1,0,62.57,31.66,15.59,15.59,0,0,0,47,16.08Z"/><path d="M47,25.25a.76.76,0,0,1-.75-.75V13a.75.75,0,1,1,1.5,0V24.5A.76.76,0,0,1,47,25.25Z"/><path d="M47,51.05a.75.75,0,0,1-.75-.75V38.81a.75.75,0,0,1,1.5,0V50.3A.75.75,0,0,1,47,51.05Z"/><path d="M39.84,32.41H28.35a.75.75,0,1,1,0-1.5H39.84a.75.75,0,1,1,0,1.5Z"/><path d="M65.65,32.41H54.16a.75.75,0,0,1,0-1.5H65.65a.75.75,0,0,1,0,1.5Z"/><path d="M47,88.38c-22.18,0-45.75-3.56-45.75-10.16,0-5.8,18.41-9.19,36.65-10h0a.75.75,0,0,1,0,1.5c-22,1-35.21,5-35.21,8.47,0,4.1,18.17,8.66,44.25,8.66s44.25-4.56,44.25-8.66c0-3.49-13.46-7.62-36-8.5a.75.75,0,0,1-.72-.78.76.76,0,0,1,.78-.72c18.64.73,37.44,4.1,37.44,10C92.75,84.82,69.18,88.38,47,88.38Z"/></svg>